<svg width="1280" height="420" viewBox="0 0 1280 420" fill="none" xmlns="http://www.w3.org/2000/svg" role="img" aria-labelledby="title desc">
  <title id="title">BuiltByDon</title>
  <desc id="desc">Small, self-hostable tools for productivity, life management, and learning.</desc>
  <rect width="1280" height="420" rx="34" fill="#101114"/>
  <rect x="1" y="1" width="1278" height="418" rx="33" stroke="#313642" stroke-width="2"/>
  <circle cx="1080" cy="92" r="190" fill="#181A20"/>
  <circle cx="117" cy="350" r="220" fill="#181A20"/>
  <g transform="translate(86 78)">
    <rect x="0" y="0" width="264" height="264" rx="52" fill="#15161A" stroke="#313642" stroke-width="2"/>
    <rect x="76" y="70" width="54" height="54" rx="16" fill="#444650"/>
    <rect x="150" y="70" width="54" height="54" rx="16" fill="#F0A71F"/>
    <rect x="76" y="144" width="54" height="54" rx="16" fill="#F0A71F"/>
    <rect x="150" y="144" width="54" height="54" rx="16" fill="#444650"/>
  </g>
  <g transform="translate(410 92)">
    <text x="0" y="62" fill="#F2F4F7" font-family="Inter, Segoe UI, Arial, sans-serif" font-size="72" font-weight="780">BuiltByDon</text>
    <text x="0" y="120" fill="#D5D9E0" font-family="Inter, Segoe UI, Arial, sans-serif" font-size="28" font-weight="500">Small, self-hostable tools for everyday life.</text>
    <g transform="translate(0 170)">
      <rect x="0" y="0" width="196" height="46" rx="23" fill="#F0A71F"/>
      <text x="98" y="30" text-anchor="middle" fill="#16130C" font-family="Inter, Segoe UI, Arial, sans-serif" font-size="17" font-weight="760">productivity</text>
      <rect x="216" y="0" width="190" height="46" rx="23" fill="#20232B" stroke="#444650"/>
      <text x="311" y="30" text-anchor="middle" fill="#F2F4F7" font-family="Inter, Segoe UI, Arial, sans-serif" font-size="17" font-weight="700">self-hosted</text>
      <rect x="426" y="0" width="164" height="46" rx="23" fill="#20232B" stroke="#444650"/>
      <text x="508" y="30" text-anchor="middle" fill="#F2F4F7" font-family="Inter, Segoe UI, Arial, sans-serif" font-size="17" font-weight="700">learning</text>
    </g>
    <text x="0" y="280" fill="#A8B0BD" font-family="Inter, Segoe UI, Arial, sans-serif" font-size="20">builtbydon.dev</text>
  </g>
</svg>
